# MagicaVoxel @ Ephtracy

# group
o 

# material
mtllib category.mtl
usemtl palette

# normals
vn -1 0 0
vn 1 0 0
vn 0 0 1
vn 0 0 -1
vn 0 -1 0
vn 0 1 0

# texcoords
vt 0.00195313 0.5
vt 0.337891 0.5
vt 0.365234 0.5
vt 0.533203 0.5

# verts
v -0.6 1.2 0.5
v -0.6 1.2 0.4
v -0.6 1.8 0.5
v -0.6 1.8 0.4
v -0.5 0 0.7
v -0.5 0 -0.3
v -0.5 0.1 0.7
v -0.5 0.1 -0.3
v -0.4 0.1 0.6
v -0.4 0.1 -0.2
v -0.4 0.2 0.6
v -0.4 0.2 -0.2
v -0.4 1.9 0.5
v -0.4 1.9 -0.1
v -0.4 2 0.5
v -0.4 2 -0.1
v -0.3 0.2 0.4
v -0.3 0.2 0
v -0.3 1.2 0.4
v -0.3 1.8 0.4
v -0.3 1.9 0.4
v -0.3 1.9 0
v -0.3 2 0.3
v -0.3 2 0.1
v -0.3 2.6 0.3
v -0.3 2.6 0.1
v 0.3 0.2 0.4
v 0.3 0.2 0
v 0.3 1.2 0.4
v 0.3 1.8 0.4
v 0.3 1.9 0.4
v 0.3 1.9 0
v 0.3 2 0.3
v 0.3 2 0.1
v 0.3 2.6 0.3
v 0.3 2.6 0.1
v 0.4 0.1 0.6
v 0.4 0.1 -0.2
v 0.4 0.2 0.6
v 0.4 0.2 -0.2
v 0.4 1.9 0.5
v 0.4 1.9 -0.1
v 0.4 2 0.5
v 0.4 2 -0.1
v 0.5 0 0.7
v 0.5 0 -0.3
v 0.5 0.1 0.7
v 0.5 0.1 -0.3
v 0.6 1.2 0.5
v 0.6 1.2 0.4
v 0.6 1.8 0.5
v 0.6 1.8 0.4
v -0.5 0 0.7
v -0.5 0.1 0.7
v 0.5 0 0.7
v 0.5 0.1 0.7
v -0.4 0.1 0.6
v -0.4 0.2 0.6
v 0.4 0.1 0.6
v 0.4 0.2 0.6
v -0.6 1.2 0.5
v -0.6 1.8 0.5
v -0.4 1.9 0.5
v -0.4 2 0.5
v 0.4 1.9 0.5
v 0.4 2 0.5
v 0.6 1.2 0.5
v 0.6 1.8 0.5
v -0.3 0.2 0.4
v -0.3 1.2 0.4
v -0.3 1.8 0.4
v -0.3 1.9 0.4
v 0.3 0.2 0.4
v 0.3 1.2 0.4
v 0.3 1.8 0.4
v 0.3 1.9 0.4
v -0.3 2 0.3
v -0.3 2.6 0.3
v 0.3 2 0.3
v 0.3 2.6 0.3
v -0.6 1.2 0.4
v -0.6 1.8 0.4
v -0.3 1.2 0.4
v -0.3 1.8 0.4
v 0.3 1.2 0.4
v 0.3 1.8 0.4
v 0.6 1.2 0.4
v 0.6 1.8 0.4
v -0.3 2 0.1
v -0.3 2.6 0.1
v 0.3 2 0.1
v 0.3 2.6 0.1
v -0.3 0.2 0
v -0.3 1.9 0
v 0.3 0.2 0
v 0.3 1.9 0
v -0.4 1.9 -0.1
v -0.4 2 -0.1
v 0.4 1.9 -0.1
v 0.4 2 -0.1
v -0.4 0.1 -0.2
v -0.4 0.2 -0.2
v 0.4 0.1 -0.2
v 0.4 0.2 -0.2
v -0.5 0 -0.3
v -0.5 0.1 -0.3
v 0.5 0 -0.3
v 0.5 0.1 -0.3
v -0.5 0 0.7
v 0.5 0 0.7
v -0.5 0 -0.3
v 0.5 0 -0.3
v -0.6 1.2 0.5
v 0.6 1.2 0.5
v -0.6 1.2 0.4
v -0.3 1.2 0.4
v 0.3 1.2 0.4
v 0.6 1.2 0.4
v -0.4 1.9 0.5
v 0.4 1.9 0.5
v -0.3 1.9 0.4
v 0.3 1.9 0.4
v -0.3 1.9 0
v 0.3 1.9 0
v -0.4 1.9 -0.1
v 0.4 1.9 -0.1
v -0.5 0.1 0.7
v 0.5 0.1 0.7
v -0.4 0.1 0.6
v 0.4 0.1 0.6
v -0.4 0.1 -0.2
v 0.4 0.1 -0.2
v -0.5 0.1 -0.3
v 0.5 0.1 -0.3
v -0.4 0.2 0.6
v 0.4 0.2 0.6
v -0.3 0.2 0.4
v 0.3 0.2 0.4
v -0.3 0.2 0
v 0.3 0.2 0
v -0.4 0.2 -0.2
v 0.4 0.2 -0.2
v -0.6 1.8 0.5
v 0.6 1.8 0.5
v -0.6 1.8 0.4
v -0.3 1.8 0.4
v 0.3 1.8 0.4
v 0.6 1.8 0.4
v -0.4 2 0.5
v 0.4 2 0.5
v -0.3 2 0.3
v 0.3 2 0.3
v -0.3 2 0.1
v 0.3 2 0.1
v -0.4 2 -0.1
v 0.4 2 -0.1
v -0.3 2.6 0.3
v 0.3 2.6 0.3
v -0.3 2.6 0.1
v 0.3 2.6 0.1

# faces
f 3/3/1 2/3/1 1/3/1
f 4/3/1 2/3/1 3/3/1
f 7/4/1 6/4/1 5/4/1
f 8/4/1 6/4/1 7/4/1
f 11/3/1 10/3/1 9/3/1
f 12/3/1 10/3/1 11/3/1
f 15/3/1 14/3/1 13/3/1
f 16/3/1 14/3/1 15/3/1
f 19/2/1 18/2/1 17/2/1
f 20/2/1 18/2/1 19/2/1
f 21/2/1 18/2/1 20/2/1
f 22/2/1 18/2/1 21/2/1
f 25/1/1 24/1/1 23/1/1
f 26/1/1 24/1/1 25/1/1
f 27/2/2 28/2/2 29/2/2
f 29/2/2 28/2/2 30/2/2
f 30/2/2 28/2/2 31/2/2
f 31/2/2 28/2/2 32/2/2
f 33/1/2 34/1/2 35/1/2
f 35/1/2 34/1/2 36/1/2
f 37/3/2 38/3/2 39/3/2
f 39/3/2 38/3/2 40/3/2
f 41/3/2 42/3/2 43/3/2
f 43/3/2 42/3/2 44/3/2
f 45/4/2 46/4/2 47/4/2
f 47/4/2 46/4/2 48/4/2
f 49/3/2 50/3/2 51/3/2
f 51/3/2 50/3/2 52/3/2
f 55/4/3 54/4/3 53/4/3
f 56/4/3 54/4/3 55/4/3
f 59/3/3 58/3/3 57/3/3
f 60/3/3 58/3/3 59/3/3
f 65/3/3 64/3/3 63/3/3
f 66/3/3 64/3/3 65/3/3
f 67/3/3 62/3/3 61/3/3
f 68/3/3 62/3/3 67/3/3
f 73/2/3 70/2/3 69/2/3
f 74/2/3 70/2/3 73/2/3
f 75/2/3 72/2/3 71/2/3
f 76/2/3 72/2/3 75/2/3
f 79/1/3 78/1/3 77/1/3
f 80/1/3 78/1/3 79/1/3
f 81/3/4 82/3/4 83/3/4
f 83/3/4 82/3/4 84/3/4
f 85/3/4 86/3/4 87/3/4
f 87/3/4 86/3/4 88/3/4
f 89/1/4 90/1/4 91/1/4
f 91/1/4 90/1/4 92/1/4
f 93/2/4 94/2/4 95/2/4
f 95/2/4 94/2/4 96/2/4
f 97/3/4 98/3/4 99/3/4
f 99/3/4 98/3/4 100/3/4
f 101/3/4 102/3/4 103/3/4
f 103/3/4 102/3/4 104/3/4
f 105/4/4 106/4/4 107/4/4
f 107/4/4 106/4/4 108/4/4
f 111/4/5 110/4/5 109/4/5
f 112/4/5 110/4/5 111/4/5
f 115/3/5 114/3/5 113/3/5
f 116/3/5 114/3/5 115/3/5
f 117/3/5 114/3/5 116/3/5
f 118/3/5 114/3/5 117/3/5
f 121/3/5 120/3/5 119/3/5
f 122/3/5 120/3/5 121/3/5
f 123/3/5 121/3/5 119/3/5
f 124/3/5 120/3/5 122/3/5
f 125/3/5 123/3/5 119/3/5
f 125/3/5 124/3/5 123/3/5
f 126/3/5 120/3/5 124/3/5
f 126/3/5 124/3/5 125/3/5
f 127/4/6 128/4/6 129/4/6
f 129/4/6 128/4/6 130/4/6
f 127/4/6 129/4/6 131/4/6
f 130/4/6 128/4/6 132/4/6
f 127/4/6 131/4/6 133/4/6
f 131/4/6 132/4/6 133/4/6
f 132/4/6 128/4/6 134/4/6
f 133/4/6 132/4/6 134/4/6
f 135/3/6 136/3/6 137/3/6
f 137/3/6 136/3/6 138/3/6
f 135/3/6 137/3/6 139/3/6
f 138/3/6 136/3/6 140/3/6
f 135/3/6 139/3/6 141/3/6
f 139/3/6 140/3/6 141/3/6
f 140/3/6 136/3/6 142/3/6
f 141/3/6 140/3/6 142/3/6
f 143/3/6 144/3/6 145/3/6
f 145/3/6 144/3/6 146/3/6
f 146/3/6 144/3/6 147/3/6
f 147/3/6 144/3/6 148/3/6
f 149/3/6 150/3/6 151/3/6
f 151/3/6 150/3/6 152/3/6
f 149/3/6 151/3/6 153/3/6
f 152/3/6 150/3/6 154/3/6
f 149/3/6 153/3/6 155/3/6
f 153/3/6 154/3/6 155/3/6
f 154/3/6 150/3/6 156/3/6
f 155/3/6 154/3/6 156/3/6
f 157/1/6 158/1/6 159/1/6
f 159/1/6 158/1/6 160/1/6
