# MagicaVoxel @ Ephtracy

# group
o 

# material
mtllib item.mtl
usemtl palette

# normals
vn -1 0 0
vn 1 0 0
vn 0 0 1
vn 0 0 -1
vn 0 -1 0
vn 0 1 0

# texcoords
vt 0.00195313 0.5
vt 0.00585938 0.5
vt 0.306641 0.5

# verts
v -0.7 0 1
v -0.7 0 0
v -0.7 0.1 1
v -0.7 0.1 0
v -0.6 0.1 0.9
v -0.6 0.1 0.1
v -0.6 0.2 0.9
v -0.6 0.2 0.1
v -0.6 1.9 0.9
v -0.6 1.9 0.1
v -0.6 2 0.9
v -0.6 2 0.1
v -0.4 0.2 0.9
v -0.4 0.2 0.1
v -0.4 1.9 0.9
v -0.4 1.9 0.1
v -0.2 0.4 1.1
v -0.2 0.4 1
v -0.2 0.4 0
v -0.2 0.4 -0.1
v -0.2 1.9 0.9
v -0.2 1.9 0.1
v -0.2 2 0.9
v -0.2 2 0.1
v -0.2 2.6 1.1
v -0.2 2.6 1
v -0.2 2.6 0
v -0.2 2.6 -0.1
v -0.3 0.2 0.9
v -0.3 0.2 0.1
v -0.3 1.9 0.9
v -0.3 1.9 0.1
v -0.1 0.5 1.1
v -0.1 0.5 1
v -0.1 0.5 0
v -0.1 0.5 -0.1
v -0.1 2.5 1.1
v -0.1 2.5 1
v -0.1 2.5 0
v -0.1 2.5 -0.1
v 0 0.1 0.9
v 0 0.1 0.1
v 0 0.2 0.9
v 0 0.2 0.1
v 0.1 0 1
v 0.1 0 0
v 0.1 0.1 1
v 0.1 0.1 0
v 0.1 0.4 1.1
v 0.1 0.4 1
v 0.1 0.4 0
v 0.1 0.4 -0.1
v 0.1 0.5 1.1
v 0.1 0.5 1
v 0.1 0.5 0
v 0.1 0.5 -0.1
v 0.1 2.5 1.1
v 0.1 2.5 1
v 0.1 2.5 0
v 0.1 2.5 -0.1
v 0.1 2.6 1.1
v 0.1 2.6 1
v 0.1 2.6 0
v 0.1 2.6 -0.1
v -0.2 0.4 1.1
v -0.2 2.6 1.1
v -0.1 0.5 1.1
v -0.1 2.5 1.1
v 0.1 0.4 1.1
v 0.1 0.5 1.1
v 0.1 2.5 1.1
v 0.1 2.6 1.1
v -0.7 0 1
v -0.7 0.1 1
v 0.1 0 1
v 0.1 0.1 1
v -0.6 0.1 0.9
v -0.6 0.2 0.9
v -0.6 1.9 0.9
v -0.6 2 0.9
v -0.4 0.2 0.9
v -0.4 1.9 0.9
v -0.3 0.2 0.9
v -0.3 1.9 0.9
v -0.2 1.9 0.9
v -0.2 2 0.9
v 0 0.1 0.9
v 0 0.2 0.9
v -0.6 0.1 0.1
v -0.6 0.2 0.1
v -0.6 1.9 0.1
v -0.6 2 0.1
v -0.4 0.2 0.1
v -0.4 1.9 0.1
v -0.3 0.2 0.1
v -0.3 1.9 0.1
v -0.2 1.9 0.1
v -0.2 2 0.1
v 0 0.1 0.1
v 0 0.2 0.1
v -0.7 0 0
v -0.7 0.1 0
v 0.1 0 0
v 0.1 0.1 0
v -0.2 0.4 -0.1
v -0.2 2.6 -0.1
v -0.1 0.5 -0.1
v -0.1 2.5 -0.1
v 0.1 0.4 -0.1
v 0.1 0.5 -0.1
v 0.1 2.5 -0.1
v 0.1 2.6 -0.1
v -0.7 0 1
v 0.1 0 1
v -0.7 0 0
v 0.1 0 0
v -0.2 0.4 1.1
v 0.1 0.4 1.1
v -0.2 0.4 1
v 0.1 0.4 1
v -0.2 0.4 0
v 0.1 0.4 0
v -0.2 0.4 -0.1
v 0.1 0.4 -0.1
v -0.6 1.9 0.9
v -0.4 1.9 0.9
v -0.3 1.9 0.9
v -0.2 1.9 0.9
v -0.6 1.9 0.1
v -0.4 1.9 0.1
v -0.3 1.9 0.1
v -0.2 1.9 0.1
v -0.1 2.5 1.1
v 0.1 2.5 1.1
v -0.1 2.5 1
v 0.1 2.5 1
v -0.1 2.5 0
v 0.1 2.5 0
v -0.1 2.5 -0.1
v 0.1 2.5 -0.1
v -0.7 0.1 1
v 0.1 0.1 1
v -0.6 0.1 0.9
v 0 0.1 0.9
v -0.6 0.1 0.1
v 0 0.1 0.1
v -0.7 0.1 0
v 0.1 0.1 0
v -0.6 0.2 0.9
v -0.4 0.2 0.9
v -0.3 0.2 0.9
v 0 0.2 0.9
v -0.6 0.2 0.1
v -0.4 0.2 0.1
v -0.3 0.2 0.1
v 0 0.2 0.1
v -0.1 0.5 1.1
v 0.1 0.5 1.1
v -0.1 0.5 1
v 0.1 0.5 1
v -0.1 0.5 0
v 0.1 0.5 0
v -0.1 0.5 -0.1
v 0.1 0.5 -0.1
v -0.6 2 0.9
v -0.2 2 0.9
v -0.6 2 0.1
v -0.2 2 0.1
v -0.2 2.6 1.1
v 0.1 2.6 1.1
v -0.2 2.6 1
v 0.1 2.6 1
v -0.2 2.6 0
v 0.1 2.6 0
v -0.2 2.6 -0.1
v 0.1 2.6 -0.1

# faces
f 3/2/1 2/2/1 1/2/1
f 4/2/1 2/2/1 3/2/1
f 7/2/1 6/2/1 5/2/1
f 8/2/1 6/2/1 7/2/1
f 11/2/1 10/2/1 9/2/1
f 12/2/1 10/2/1 11/2/1
f 15/2/1 14/2/1 13/2/1
f 16/2/1 14/2/1 15/2/1
f 21/1/1 19/1/1 18/1/1
f 22/1/1 19/1/1 21/1/1
f 23/1/1 21/1/1 18/1/1
f 24/1/1 19/1/1 22/1/1
f 25/3/1 18/3/1 17/3/1
f 26/1/1 24/1/1 23/1/1
f 26/3/1 18/3/1 25/3/1
f 26/1/1 23/1/1 18/1/1
f 27/3/1 20/3/1 19/3/1
f 27/1/1 24/1/1 26/1/1
f 27/1/1 19/1/1 24/1/1
f 28/3/1 20/3/1 27/3/1
f 29/2/2 30/2/2 31/2/2
f 31/2/2 30/2/2 32/2/2
f 33/3/2 34/3/2 37/3/2
f 34/1/2 35/1/2 38/1/2
f 37/3/2 34/3/2 38/3/2
f 35/3/2 36/3/2 39/3/2
f 38/1/2 35/1/2 39/1/2
f 39/3/2 36/3/2 40/3/2
f 41/2/2 42/2/2 43/2/2
f 43/2/2 42/2/2 44/2/2
f 45/2/2 46/2/2 47/2/2
f 47/2/2 46/2/2 48/2/2
f 49/3/2 50/3/2 53/3/2
f 50/1/2 51/1/2 54/1/2
f 53/3/2 50/3/2 54/3/2
f 51/3/2 52/3/2 55/3/2
f 54/1/2 51/1/2 55/1/2
f 55/3/2 52/3/2 56/3/2
f 57/3/2 58/3/2 61/3/2
f 58/1/2 59/1/2 62/1/2
f 61/3/2 58/3/2 62/3/2
f 59/3/2 60/3/2 63/3/2
f 62/1/2 59/1/2 63/1/2
f 63/3/2 60/3/2 64/3/2
f 67/3/3 66/3/3 65/3/3
f 68/3/3 66/3/3 67/3/3
f 69/3/3 67/3/3 65/3/3
f 70/3/3 67/3/3 69/3/3
f 71/3/3 66/3/3 68/3/3
f 72/3/3 66/3/3 71/3/3
f 75/2/3 74/2/3 73/2/3
f 76/2/3 74/2/3 75/2/3
f 81/2/3 78/2/3 77/2/3
f 82/2/3 80/2/3 79/2/3
f 83/2/3 81/2/3 77/2/3
f 83/2/3 82/2/3 81/2/3
f 84/2/3 80/2/3 82/2/3
f 84/2/3 82/2/3 83/2/3
f 85/2/3 80/2/3 84/2/3
f 86/2/3 80/2/3 85/2/3
f 87/2/3 83/2/3 77/2/3
f 88/2/3 83/2/3 87/2/3
f 89/2/4 90/2/4 93/2/4
f 91/2/4 92/2/4 94/2/4
f 89/2/4 93/2/4 95/2/4
f 93/2/4 94/2/4 95/2/4
f 94/2/4 92/2/4 96/2/4
f 95/2/4 94/2/4 96/2/4
f 96/2/4 92/2/4 97/2/4
f 97/2/4 92/2/4 98/2/4
f 89/2/4 95/2/4 99/2/4
f 99/2/4 95/2/4 100/2/4
f 101/2/4 102/2/4 103/2/4
f 103/2/4 102/2/4 104/2/4
f 105/3/4 106/3/4 107/3/4
f 107/3/4 106/3/4 108/3/4
f 105/3/4 107/3/4 109/3/4
f 109/3/4 107/3/4 110/3/4
f 108/3/4 106/3/4 111/3/4
f 111/3/4 106/3/4 112/3/4
f 115/2/5 114/2/5 113/2/5
f 116/2/5 114/2/5 115/2/5
f 119/3/5 118/3/5 117/3/5
f 120/3/5 118/3/5 119/3/5
f 121/1/5 120/1/5 119/1/5
f 122/1/5 120/1/5 121/1/5
f 123/3/5 122/3/5 121/3/5
f 124/3/5 122/3/5 123/3/5
f 129/2/5 126/2/5 125/2/5
f 130/2/5 126/2/5 129/2/5
f 131/2/5 128/2/5 127/2/5
f 132/2/5 128/2/5 131/2/5
f 135/3/5 134/3/5 133/3/5
f 136/3/5 134/3/5 135/3/5
f 137/1/5 136/1/5 135/1/5
f 138/1/5 136/1/5 137/1/5
f 139/3/5 138/3/5 137/3/5
f 140/3/5 138/3/5 139/3/5
f 141/2/6 142/2/6 143/2/6
f 143/2/6 142/2/6 144/2/6
f 141/2/6 143/2/6 145/2/6
f 144/2/6 142/2/6 146/2/6
f 141/2/6 145/2/6 147/2/6
f 145/2/6 146/2/6 147/2/6
f 146/2/6 142/2/6 148/2/6
f 147/2/6 146/2/6 148/2/6
f 149/2/6 150/2/6 153/2/6
f 153/2/6 150/2/6 154/2/6
f 151/2/6 152/2/6 155/2/6
f 155/2/6 152/2/6 156/2/6
f 157/3/6 158/3/6 159/3/6
f 159/3/6 158/3/6 160/3/6
f 159/1/6 160/1/6 161/1/6
f 161/1/6 160/1/6 162/1/6
f 161/3/6 162/3/6 163/3/6
f 163/3/6 162/3/6 164/3/6
f 165/2/6 166/2/6 167/2/6
f 167/2/6 166/2/6 168/2/6
f 169/3/6 170/3/6 171/3/6
f 171/3/6 170/3/6 172/3/6
f 171/1/6 172/1/6 173/1/6
f 173/1/6 172/1/6 174/1/6
f 173/3/6 174/3/6 175/3/6
f 175/3/6 174/3/6 176/3/6
